

<svg version="1.1" id="Layer_1" xmlns="http://www.w3.org/2000/svg" xmlns:xlink="http://www.w3.org/1999/xlink" x="0px" y="0px"
	 viewBox="0 0 456.26 131.73" style="enable-background:new 0 0 456.26 131.73;" xml:space="preserve">
<style type="text/css">
	.st0{fill:#C9478F;}
	.st1{fill:#C6332B;}
	.st2{fill:#EFC42A;}
	.st3{fill:#5BB3DF;}
	.st4{fill:#254A95;}
	.st5{fill:#77AD3E;}
	.st6{fill:#254A95;stroke:#254A95;stroke-miterlimit:10;}
</style>
<g>
	<path class="st0" d="M12.78,62.16l-9.82,0.43L64.79,0c0,0,25.51,20.7,30.29,30.53c4.77,9.84,2.47,30.02,2.47,30.02L30.16,62.1
		l-12.83-4.84L12.78,62.16"/>
	<path class="st1" d="M35.27,66.71l65.81,1.97c0,0-0.59,19.76-5.91,30.38c-5.33,10.62-34.06,22.26-34.06,22.26L0,67.9l11.83-0.87
		l6.4,5.67L35.27,66.71"/>
	<path class="st2" d="M68.3,0.88l72.48,3.23l-4.21,55.07l-9.82-6.15l-0.31,6.24l-19.41-0.19c0,0-1.05-21.97-7.85-33.93
		C92.98,14.26,68.3,0.88,68.3,0.88"/>
	<path class="st3" d="M105.62,72.68l15.42-4.51l0.21,4.84l20.81-7.48l0.48,60.62l-71.33-2.71c0,0,26.45-7.15,30.91-17.74
		C106.58,95.11,105.62,72.68,105.62,72.68"/>
	<polyline class="st4" points="3.74,7.86 52.35,8.01 4.26,52.84 3.74,7.86 	"/>
	<path class="st5" d="M6.37,79.97l-3.9,51.76l40.3-3.81l3.81-4.59c0,0,9.51-1.1,11.5-1.88C60.07,120.67,6.37,79.97,6.37,79.97"/>
	<g>
		<path class="st6" d="M168.18,12.24v13.28h0.12c0.87-1.25,1.85-2.19,2.93-2.82c1.09-0.63,2.4-0.94,3.94-0.94
			c3.36,0,5.82,1.3,7.4,3.91c1.58,2.61,2.37,6.84,2.37,12.72c0,5.87-0.79,10.08-2.37,12.63c-1.58,2.55-4.05,3.82-7.4,3.82
			c-1.66,0-3.05-0.29-4.18-0.88c-1.12-0.59-2.14-1.62-3.05-3.11h-0.12v3.35H160V12.26h8.18V12.24z M168.98,46.16
			c0.53,1.74,1.71,2.61,3.52,2.61c1.78,0,2.93-0.87,3.46-2.61c0.53-1.74,0.8-4.34,0.8-7.78c0-3.45-0.27-6.04-0.8-7.78
			s-1.69-2.62-3.46-2.62c-1.82,0-2.99,0.87-3.52,2.62c-0.53,1.74-0.8,4.34-0.8,7.78C168.18,41.83,168.44,44.42,168.98,46.16z"/>
		<path class="st6" d="M205.84,50.48c-0.87,1.57-1.99,2.68-3.38,3.35c-1.38,0.67-2.96,1-4.74,1c-2.61,0-4.61-0.68-6.01-2.03
			s-2.1-3.61-2.1-6.79V22.57h8.17v21.79c0,1.64,0.28,2.79,0.83,3.44c0.55,0.64,1.44,0.97,2.67,0.97c2.88,0,4.32-1.74,4.32-5.23
			V22.57h8.17v31.61h-7.82v-3.7H205.84z"/>
		<path class="st6" d="M226.22,42.14c0,0.94,0.07,1.85,0.21,2.73c0.14,0.88,0.36,1.66,0.68,2.35s0.73,1.23,1.24,1.64
			c0.51,0.41,1.14,0.62,1.9,0.62c1.38,0,2.39-0.49,3.02-1.47c0.63-0.98,1.07-2.47,1.3-4.46h7.34c-0.16,3.68-1.14,6.48-2.96,8.4
			c-1.82,1.92-4.68,2.88-8.59,2.88c-2.96,0-5.27-0.49-6.93-1.47s-2.88-2.27-3.67-3.88c-0.79-1.61-1.27-3.41-1.45-5.4
			c-0.18-2-0.27-4-0.27-5.99c0-2.12,0.15-4.15,0.44-6.11c0.3-1.96,0.89-3.7,1.78-5.23c0.89-1.53,2.16-2.74,3.82-3.64
			c1.66-0.9,3.87-1.35,6.63-1.35c2.37,0,4.31,0.38,5.83,1.15c1.52,0.76,2.71,1.84,3.58,3.23s1.46,3.08,1.78,5.05
			c0.32,1.98,0.47,4.18,0.47,6.61v1.82H226.2v2.52H226.22z M234.33,31.59c-0.12-0.92-0.33-1.7-0.62-2.35
			c-0.3-0.65-0.71-1.14-1.25-1.47c-0.53-0.33-1.21-0.5-2.04-0.5c-0.83,0-1.51,0.19-2.04,0.56s-0.96,0.86-1.27,1.47
			c-0.32,0.61-0.54,1.28-0.68,2.03c-0.14,0.74-0.21,1.49-0.21,2.23v1.23h8.35C234.53,33.58,234.45,32.51,234.33,31.59z"/>
		<path class="st6" d="M252.63,44.9c0,1.37,0.36,2.48,1.1,3.32c0.73,0.84,1.79,1.26,3.17,1.26c1.26,0,2.27-0.31,3.02-0.94
			s1.12-1.57,1.12-2.82c0-1.02-0.3-1.79-0.89-2.32c-0.59-0.53-1.28-0.95-2.07-1.26l-5.74-2.06c-2.25-0.78-3.95-1.89-5.09-3.32
			c-1.15-1.43-1.72-3.26-1.72-5.49c0-1.29,0.22-2.52,0.65-3.67c0.44-1.16,1.13-2.16,2.07-3.02c0.95-0.86,2.16-1.55,3.64-2.06
			s3.27-0.76,5.36-0.76c3.71,0,6.46,0.78,8.23,2.35c1.78,1.57,2.67,3.78,2.67,6.64v1.29h-7.34c0-1.65-0.27-2.85-0.8-3.61
			c-0.53-0.76-1.47-1.14-2.81-1.14c-1.03,0-1.92,0.28-2.69,0.85s-1.16,1.42-1.16,2.56c0,0.78,0.25,1.49,0.74,2.11
			c0.49,0.63,1.43,1.16,2.81,1.59l4.92,1.64c2.57,0.86,4.38,1.99,5.45,3.38c1.06,1.39,1.6,3.28,1.6,5.67c0,1.68-0.3,3.14-0.89,4.38
			c-0.59,1.23-1.41,2.26-2.46,3.08c-1.05,0.82-2.29,1.41-3.73,1.76s-3.03,0.53-4.77,0.53c-2.29,0-4.2-0.22-5.72-0.65
			s-2.72-1.08-3.61-1.94c-0.89-0.86-1.51-1.91-1.87-3.14s-0.53-2.61-0.53-4.14v-1.12h7.34L252.63,44.9L252.63,44.9z"/>
		<path class="st6" d="M281.41,34.38h0.12l8.23-11.81h9l-9.18,12.45l10.54,19.15h-9l-6.81-12.98l-2.9,3.76v9.22h-8.17V12.23h8.17
			L281.41,34.38L281.41,34.38z"/>
		<path class="st6" d="M304.68,58.47c1.5,0,2.58-0.39,3.23-1.18c0.65-0.78,1.04-1.82,1.15-3.11l-8.94-31.61h8.53l4.74,21.85h0.12
			l4.15-21.85h8.17l-7.7,29.49c-0.71,2.62-1.39,4.75-2.04,6.37s-1.42,2.88-2.31,3.76c-0.89,0.88-1.96,1.46-3.2,1.73
			c-1.25,0.27-2.81,0.41-4.71,0.41h-3.31v-6.05C303.26,58.41,303.98,58.47,304.68,58.47z"/>
		<path class="st6" d="M345.08,50.83c-0.91,1.49-1.93,2.53-3.05,3.11c-1.12,0.59-2.52,0.88-4.17,0.88c-3.36,0-5.83-1.27-7.4-3.82
			c-1.58-2.55-2.37-6.76-2.37-12.63c0-5.88,0.79-10.11,2.37-12.72c1.58-2.6,4.05-3.91,7.4-3.91c1.54,0,2.85,0.31,3.94,0.94
			s2.06,1.57,2.93,2.82h0.12V12.22h8.17v41.94h-7.82v-3.35h-0.12V50.83z M337.05,46.16c0.53,1.74,1.69,2.61,3.46,2.61
			c1.81,0,2.99-0.87,3.52-2.61s0.8-4.34,0.8-7.78c0-3.45-0.27-6.04-0.8-7.78s-1.71-2.62-3.52-2.62c-1.78,0-2.93,0.87-3.46,2.62
			c-0.53,1.74-0.8,4.34-0.8,7.78C336.25,41.83,336.52,44.42,337.05,46.16z"/>
		<path class="st6" d="M366.28,22.58v3.7h0.12c0.87-1.57,1.99-2.71,3.38-3.44c1.38-0.72,2.96-1.09,4.74-1.09
			c2.61,0,4.61,0.71,6.01,2.11c1.4,1.41,2.1,3.7,2.1,6.87v23.44h-8.17v-21.8c0-1.64-0.28-2.79-0.83-3.44s-1.44-0.97-2.66-0.97
			c-2.88,0-4.32,1.74-4.32,5.23v20.97h-8.17V22.55h7.8V22.58z"/>
		<path class="st6" d="M396.54,11.77v6.93h-8.17v-6.93H396.54z M396.54,22.58v31.61h-8.17V22.58H396.54z"/>
		<path class="st6" d="M410.1,22.58v3.7h0.12c0.87-1.57,1.99-2.71,3.38-3.44c1.38-0.72,2.96-1.09,4.74-1.09
			c2.61,0,4.61,0.71,6.01,2.11c1.4,1.41,2.1,3.7,2.1,6.87v23.44h-8.17v-21.8c0-1.64-0.28-2.79-0.83-3.44s-1.44-0.97-2.66-0.97
			c-2.88,0-4.32,1.74-4.32,5.23v20.97h-8.17V22.55h7.8V22.58z"/>
		<path class="st6" d="M455.76,52.6c0,4.07-1.02,7.13-3.05,9.16c-2.03,2.04-5.44,3.06-10.22,3.06c-3.47,0-6.15-0.74-8.02-2.2
			c-1.88-1.47-2.81-3.55-2.81-6.26h7.82c0,1.02,0.41,1.82,1.24,2.41c0.39,0.27,0.82,0.49,1.27,0.65c0.45,0.16,0.94,0.23,1.45,0.23
			c1.66,0,2.82-0.53,3.49-1.59c0.67-1.06,1.01-2.37,1.01-3.94v-4.17h-0.12c-0.83,1.18-1.85,2.12-3.05,2.82
			c-1.21,0.71-2.46,1.06-3.76,1.06c-3.24,0-5.68-1.22-7.31-3.67c-1.64-2.45-2.46-6.55-2.46-12.31c0-1.84,0.11-3.72,0.33-5.64
			s0.67-3.65,1.36-5.2c0.69-1.55,1.7-2.81,3.02-3.79c1.32-0.98,3.09-1.47,5.3-1.47c1.15,0,2.33,0.31,3.55,0.94s2.23,1.76,3.02,3.41
			h0.12v-3.52h7.82L455.76,52.6L455.76,52.6z M439.57,42.49c0.1,0.98,0.3,1.85,0.59,2.61c0.3,0.76,0.71,1.37,1.24,1.82
			s1.23,0.68,2.1,0.68s1.59-0.23,2.16-0.68c0.57-0.45,1.03-1.07,1.36-1.85s0.57-1.73,0.71-2.85c0.14-1.12,0.21-2.34,0.21-3.67
			c0-3.84-0.31-6.56-0.92-8.17c-0.61-1.6-1.73-2.41-3.35-2.41c-0.91,0-1.64,0.2-2.19,0.59c-0.55,0.39-0.99,1.03-1.3,1.91
			c-0.32,0.88-0.52,2.06-0.62,3.52c-0.1,1.47-0.15,3.26-0.15,5.37C439.42,40.47,439.47,41.51,439.57,42.49z"/>
	</g>
	<g>
		<path class="st6" d="M177.04,107.43c-0.97,1.5-2.06,2.55-3.26,3.14c-1.2,0.59-2.69,0.89-4.46,0.89c-3.58,0-6.22-1.29-7.91-3.86
			c-1.69-2.57-2.53-6.83-2.53-12.76c0-5.93,0.84-10.22,2.53-12.85s4.32-3.95,7.91-3.95c1.65,0,3.05,0.32,4.21,0.95
			s2.2,1.58,3.13,2.85h0.13V68.43h8.73v42.37h-8.35v-3.38L177.04,107.43L177.04,107.43z M168.47,102.71c0.57,1.76,1.8,2.64,3.7,2.64
			c1.94,0,3.19-0.88,3.76-2.64c0.57-1.76,0.85-4.38,0.85-7.86c0-3.48-0.28-6.1-0.85-7.86c-0.57-1.76-1.82-2.64-3.76-2.64
			c-1.9,0-3.13,0.88-3.7,2.64c-0.57,1.76-0.85,4.38-0.85,7.86C167.61,98.32,167.9,100.95,168.47,102.71z"/>
		<path class="st6" d="M191.27,87.9c0-1.86,0.32-3.41,0.95-4.66c0.63-1.25,1.49-2.25,2.56-3.03c1.08-0.77,2.34-1.32,3.79-1.66
			c1.46-0.34,3-0.5,4.65-0.5c2.61,0,4.72,0.24,6.33,0.71c1.6,0.47,2.85,1.15,3.73,2.02c0.89,0.87,1.49,1.91,1.8,3.12
			c0.32,1.21,0.47,2.52,0.47,3.95v16.8c0,1.5,0.07,2.67,0.22,3.5s0.43,1.72,0.85,2.67h-8.35c-0.3-0.51-0.52-1.06-0.66-1.63
			c-0.15-0.57-0.29-1.14-0.41-1.69h-0.13c-1.01,1.66-2.18,2.74-3.51,3.23c-1.33,0.5-3.05,0.74-5.16,0.74
			c-1.52,0-2.81-0.25-3.86-0.74c-1.06-0.49-1.9-1.18-2.53-2.05s-1.1-1.85-1.39-2.94c-0.3-1.09-0.44-2.17-0.44-3.24
			c0-1.5,0.17-2.8,0.51-3.89c0.34-1.09,0.85-2.02,1.55-2.79c0.7-0.77,1.58-1.41,2.66-1.93c1.08-0.51,2.37-0.97,3.89-1.37l4.93-1.25
			c1.31-0.32,2.21-0.75,2.72-1.31c0.5-0.55,0.76-1.36,0.76-2.43c0-1.23-0.31-2.18-0.92-2.88s-1.66-1.04-3.13-1.04
			c-1.35,0-2.36,0.38-3.04,1.13c-0.67,0.75-1.01,1.76-1.01,3.03v0.89h-7.84V87.9H191.27z M205.32,95.88
			c-0.67,0.26-1.29,0.45-1.83,0.56c-1.77,0.36-3.04,0.95-3.8,1.78c-0.76,0.83-1.14,1.96-1.14,3.38c0,1.23,0.25,2.28,0.76,3.15
			s1.35,1.31,2.53,1.31c0.59,0,1.2-0.09,1.83-0.27s1.21-0.46,1.74-0.86c0.53-0.39,0.96-0.91,1.3-1.54s0.51-1.39,0.51-2.26v-6.29
			C206.62,95.28,205.99,95.62,205.32,95.88z"/>
		<path class="st6" d="M230.11,78.88v3.74h0.13c0.93-1.58,2.13-2.74,3.61-3.47c1.48-0.73,3.16-1.1,5.06-1.1
			c2.78,0,4.92,0.71,6.42,2.14c1.5,1.43,2.25,3.74,2.25,6.94v23.68h-8.73V88.79c0-1.66-0.3-2.82-0.89-3.47
			c-0.59-0.65-1.54-0.98-2.85-0.98c-3.08,0-4.62,1.76-4.62,5.28v21.19h-8.73V78.88H230.11z"/>
		<path class="st6" d="M261.74,78.88v3.26h0.13c1.1-1.46,2.33-2.51,3.7-3.15c1.37-0.63,3.01-0.95,4.9-0.95
			c2.02,0,3.72,0.44,5.09,1.31s2.29,2.14,2.75,3.8h0.13c0.68-1.7,1.76-2.98,3.26-3.83c1.5-0.85,3.28-1.27,5.35-1.27
			c2.91,0,5.05,0.82,6.42,2.46c1.37,1.64,2.06,4.01,2.06,7.09v23.21h-8.73V88.5c0-1.34-0.26-2.37-0.79-3.09
			c-0.53-0.71-1.4-1.07-2.63-1.07c-1.39,0-2.5,0.44-3.32,1.31s-1.23,2.25-1.23,4.15v21.01h-8.73V88.5c0-1.34-0.26-2.37-0.79-3.09
			c-0.53-0.71-1.4-1.07-2.62-1.07c-1.39,0-2.5,0.44-3.32,1.31s-1.23,2.25-1.23,4.15v21.01h-8.73V78.88H261.74z"/>
		<path class="st6" d="M301.28,87.9c0-1.86,0.32-3.41,0.95-4.66s1.49-2.25,2.56-3.03c1.08-0.77,2.34-1.32,3.8-1.66
			c1.45-0.34,3-0.5,4.65-0.5c2.61,0,4.72,0.24,6.33,0.71c1.6,0.47,2.84,1.15,3.73,2.02s1.49,1.91,1.8,3.12
			c0.32,1.21,0.47,2.52,0.47,3.95v16.8c0,1.5,0.07,2.67,0.22,3.5s0.43,1.72,0.85,2.67h-8.35c-0.29-0.51-0.51-1.06-0.66-1.63
			s-0.28-1.14-0.41-1.69h-0.13c-1.01,1.66-2.18,2.74-3.51,3.23c-1.33,0.5-3.05,0.74-5.16,0.74c-1.52,0-2.81-0.25-3.86-0.74
			s-1.9-1.18-2.53-2.05s-1.1-1.85-1.39-2.94s-0.44-2.17-0.44-3.24c0-1.5,0.17-2.8,0.5-3.89c0.34-1.09,0.85-2.02,1.55-2.79
			c0.7-0.77,1.58-1.41,2.66-1.93c1.08-0.51,2.37-0.97,3.89-1.37l4.94-1.25c1.31-0.32,2.21-0.75,2.72-1.31
			c0.5-0.55,0.76-1.36,0.76-2.43c0-1.23-0.3-2.18-0.91-2.88c-0.61-0.69-1.66-1.04-3.13-1.04c-1.35,0-2.36,0.38-3.04,1.13
			c-0.68,0.75-1.01,1.76-1.01,3.03v0.89h-7.84L301.28,87.9L301.28,87.9z M315.32,95.88c-0.68,0.26-1.29,0.45-1.83,0.56
			c-1.77,0.36-3.04,0.95-3.8,1.78c-0.76,0.83-1.14,1.96-1.14,3.38c0,1.23,0.25,2.28,0.76,3.15c0.5,0.87,1.35,1.31,2.53,1.31
			c0.59,0,1.2-0.09,1.83-0.27c0.63-0.18,1.21-0.46,1.74-0.86c0.53-0.39,0.96-0.91,1.3-1.54s0.5-1.39,0.5-2.26v-6.29
			C316.63,95.28,316,95.62,315.32,95.88z"/>
		<path class="st6" d="M340.12,78.88v4.27h0.13c0.89-1.54,1.96-2.78,3.23-3.71c1.27-0.93,2.8-1.39,4.62-1.39
			c0.25,0,0.52,0.01,0.79,0.03c0.27,0.02,0.54,0.05,0.79,0.09V86c-0.46-0.04-0.92-0.07-1.36-0.09c-0.44-0.02-0.9-0.03-1.36-0.03
			c-0.76,0-1.52,0.1-2.28,0.3c-0.76,0.2-1.46,0.53-2.09,0.98c-0.63,0.46-1.14,1.05-1.52,1.78c-0.38,0.73-0.57,1.63-0.57,2.7v19.17
			h-8.73V78.88H340.12z"/>
		<path class="st6" d="M361.88,90.81h0.13l8.79-11.93h9.62l-9.8,12.58l11.26,19.35h-9.62l-7.27-13.12l-3.1,3.8v9.32h-8.73V68.44
			h8.73v22.37H361.88z"/>
	</g>
</g>
</svg>
